<svg width="174" height="176" viewBox="0 0 174 176" fill="none" xmlns="http://www.w3.org/2000/svg">
<path d="M0 2.5C0 1.11929 1.11929 0 2.5 0H15.5531V15.8202H0V2.5Z" fill="#CF4D16"/>
<path d="M158.447 160.18H174V173.5C174 174.881 172.881 176 171.5 176H158.447V160.18Z" fill="#CF4D16"/>
<path d="M172.289 174.269L1.6837 1.70305C1.05928 1.07146 1.50669 0 2.39484 0H79.4055C82.0872 0 84.6565 1.07709 86.5366 2.98941L171.131 89.0368C172.969 90.907 174 93.4247 174 96.0474V173.566C174 174.46 172.917 174.905 172.289 174.269Z" fill="#F58A07"/>
<path d="M119.743 55.4317L114.728 65.4447L122.54 73.3911L111.628 71.6331L106.612 81.6461L104.884 70.5466L93.9716 68.7886L103.815 63.6867L102.087 52.5872L109.899 60.5336L119.743 55.4317Z" fill="white"/>
<path opacity="0.4" d="M86.9174 34.4142L83.8316 40.5743L88.6378 45.4631L81.9245 44.3815L78.8388 50.5417L77.7755 43.7131L71.0622 42.6315L77.1184 39.4928L76.0551 32.6642L80.8612 37.5529L86.9174 34.4142Z" fill="white"/>
<path opacity="0.4" d="M142.326 85.8299L139.24 91.9901L144.046 96.8788L137.333 95.7972L134.247 101.957L133.184 95.1288L126.47 94.0473L132.527 90.9085L131.463 84.08L136.269 88.9687L142.326 85.8299Z" fill="white"/>
</svg>
