<svg width="20" height="14" viewBox="0 0 20 14" fill="none" xmlns="http://www.w3.org/2000/svg">
<path fill-rule="evenodd" clip-rule="evenodd" d="M18.6396 1.29942C18.9425 1.59206 19.1577 1.95443 19.2633 2.34992C19.5454 3.8155 19.6824 5.30238 19.6724 6.79158C19.678 8.25853 19.5411 9.72291 19.2633 11.1666C19.1577 11.5621 18.9425 11.9244 18.6396 12.2171C18.3367 12.5097 17.9567 12.7223 17.5381 12.8333C16.0085 13.2166 9.89017 13.2166 9.89017 13.2166C9.89017 13.2166 3.77182 13.2166 2.24224 12.8333C1.83211 12.7281 1.45786 12.5256 1.15565 12.2453C0.853432 11.965 0.633467 11.6165 0.517006 11.2333C0.234893 9.76767 0.0979517 8.28079 0.10793 6.79158C0.100136 5.31351 0.237069 3.83788 0.517006 2.38325C0.622644 1.98776 0.837788 1.6254 1.14071 1.33276C1.44363 1.04012 1.8236 0.827573 2.24224 0.716585C3.77182 0.333252 9.89017 0.333252 9.89017 0.333252C9.89017 0.333252 16.0085 0.333252 17.5381 0.683252C17.9567 0.794239 18.3367 1.00679 18.6396 1.29942ZM13.0031 6.79161L7.88962 9.51661V4.06661L13.0031 6.79161Z" fill="white"/>
</svg>
